<svg xmlns="http://www.w3.org/2000/svg" xmlns:svg="http://www.w3.org/2000/svg" id="svg7384" width="16" height="16" version="1.1"><metadata id="metadata90"/><title id="title9167">Gnome Symbolic Icon Theme</title><path id="path4223" fill="#bebebe" fill-opacity="1" d="M 9.5,2.4999998 A 5.5,5.5 0 0 0 4,8 5.5,5.5 0 0 0 9.5,13.5 5.5,5.5 0 0 0 15,8 5.5,5.5 0 0 0 9.5,2.4999998 Z m -1,2 2,0 L 10.5,7 13,7 l 0,2 -2.5,0 0,2.5 -2,0 L 8.5,9 6,9 6,7 8.5,7 8.5,4.4999998 Z M 9.5,1.5 A 6.5,6.5 0 0 0 3,8 6.5,6.5 0 0 0 9.5,14.5 6.5,6.5 0 0 0 16,8 6.5,6.5 0 0 0 9.5,1.5 Z m 0,1.5 a 5,5 0 0 1 5,5 5,5 0 0 1 -5,5 5,5 0 0 1 -5,-5 5,5 0 0 1 5,-5 z"/></svg>